<?xml version="1.0" standalone="no"?>
<!DOCTYPE svg PUBLIC "-//W3C//DTD SVG 20010904//EN"
 "http://www.w3.org/TR/2001/REC-SVG-20010904/DTD/svg10.dtd">
<svg version="1.0" xmlns="http://www.w3.org/2000/svg"
 width="520.000000pt" height="105.000000pt" viewBox="0 0 520.000000 105.000000"
 preserveAspectRatio="xMidYMid meet">

<g transform="translate(0.000000,105.000000) scale(0.100000,-0.100000)"
fill="#000000" stroke="none">
<path d="M0 525 l0 -525 2600 0 2600 0 0 525 0 525 -2600 0 -2600 0 0 -525z
m714 478 c152 -53 267 -196 283 -350 l6 -53 -217 0 -216 0 0 216 0 216 52 -7
c29 -4 71 -14 92 -22z m-214 -255 l0 -213 156 -156 156 -156 -58 -42 c-125
-89 -293 -106 -427 -43 -179 83 -282 275 -248 459 37 201 196 342 409 362 9 1
12 -48 12 -211z m4490 190 c0 -6 -43 -90 -95 -186 l-95 -174 151 -265 c90
-159 147 -269 141 -275 -5 -5 -47 -8 -93 -6 l-84 3 -153 272 -154 272 98 178
c53 98 98 181 101 186 7 12 183 8 183 -5z m-3141 -62 c17 -20 10 -67 -11 -80
-29 -18 -72 4 -76 39 -6 47 58 76 87 41z m-578 -315 l104 -298 105 296 106
296 47 3 47 3 -11 -28 c-6 -15 -55 -147 -109 -293 -54 -146 -108 -291 -120
-322 l-21 -58 -47 0 -47 0 -126 350 -126 350 47 0 46 0 105 -299z m3049 264
l0 -35 -497 -2 -498 -3 -3 -312 -2 -313 -40 0 -40 0 -2 313 -3 312 -102 3
-103 3 0 34 0 35 645 0 645 0 0 -35z m100 0 c0 -33 -2 -35 -35 -35 -33 0 -35
2 -35 35 0 33 2 35 35 35 33 0 35 -2 35 -35z m80 0 c0 -31 -3 -35 -25 -35 -22
0 -25 4 -25 35 0 31 3 35 25 35 22 0 25 -4 25 -35z m70 0 c0 -28 -4 -35 -20
-35 -16 0 -20 7 -20 35 0 28 4 35 20 35 16 0 20 -7 20 -35z m60 0 c0 -24 -5
-35 -15 -35 -10 0 -15 11 -15 35 0 24 5 35 15 35 10 0 15 -11 15 -35z m60 0
c0 -24 -5 -35 -15 -35 -10 0 -15 11 -15 35 0 24 5 35 15 35 10 0 15 -11 15
-35z m-202 -163 c18 -18 152 -253 152 -267 0 -13 -92 -169 -104 -177 -17 -12
-164 -9 -171 2 -4 6 14 46 39 90 25 43 46 82 46 86 0 3 -32 62 -71 131 -39 69
-68 131 -65 139 9 22 151 19 174 -4z m-2208 -2 c43 -12 93 -61 114 -112 9 -21
16 -65 16 -98 l0 -60 -176 0 -176 0 7 -37 c17 -93 73 -136 170 -131 37 2 77
12 103 26 l42 22 0 -38 c0 -34 -4 -40 -37 -56 -49 -23 -156 -31 -213 -16 -56
15 -121 79 -138 137 -6 22 -12 74 -12 114 0 183 135 295 300 249z m1518 -33
l3 -37 -39 6 c-55 9 -98 -16 -123 -69 -16 -36 -19 -67 -19 -204 l0 -163 -45 0
-45 0 0 250 0 250 45 0 45 0 0 -37 0 -37 28 31 c37 43 60 53 107 50 39 -2 40
-3 43 -40z m369 17 c66 -50 68 -56 71 -280 l3 -204 -40 0 c-41 0 -41 0 -41 37
l0 37 -32 -31 c-40 -38 -76 -53 -129 -53 -123 0 -192 108 -138 217 31 60 69
80 195 99 54 8 100 17 103 19 10 11 -21 85 -42 100 -35 24 -107 19 -171 -13
l-56 -29 0 37 c0 21 7 43 15 50 51 42 212 51 262 14z m-2317 -234 l0 -250 -40
0 -40 0 0 250 0 250 40 0 40 0 0 -250z m714 198 c9 -29 33 -118 55 -197 22
-79 42 -145 43 -146 2 -2 30 87 63 196 l60 200 39 -3 40 -3 53 -194 c29 -106
54 -195 56 -197 2 -2 27 86 57 196 l53 200 39 0 c21 0 38 -3 38 -7 0 -5 -32
-117 -72 -250 l-73 -243 -42 0 -42 0 -20 68 c-11 37 -34 117 -51 177 -17 61
-34 117 -37 125 -4 13 -53 -131 -109 -318 -15 -52 -15 -52 -57 -52 l-42 0 -73
243 c-40 133 -73 245 -72 250 0 4 18 7 40 7 39 0 40 0 54 -52z m-1528 -129
c-4 -28 -16 -75 -27 -105 -20 -54 -74 -134 -94 -141 -6 -2 -78 64 -160 147
l-150 150 219 0 219 0 -7 -51z"/>
<path d="M2133 580 c-31 -18 -53 -50 -67 -97 l-7 -23 135 0 c131 0 136 1 136
21 0 36 -31 89 -61 104 -39 21 -98 19 -136 -5z"/>
<path d="M4028 396 c-76 -16 -98 -37 -98 -92 0 -55 33 -84 96 -84 73 0 134 70
134 155 0 34 -1 35 -37 34 -21 0 -64 -6 -95 -13z"/>
</g>
</svg>
